<svg viewBox="0 0 96 96" xmlns="http://www.w3.org/2000/svg" xmlns:xlink="http://www.w3.org/1999/xlink" id="Icons_Books" overflow="hidden"><path d="M90.6 36.3 85.4 34.4 85.4 23.5 90.6 21.3 55.4 8.3 12.6 23.3C8.5 25.3 8.4 30.8 8.4 35.3 8.4 36.8 8.6 38.3 8.9 39.7 5.5 41.9 5.4 47 5.4 51.3 5.4 54.8 6.2 58 8.4 60 7.9 61.7 8.2 63.8 8.2 66.3 8.2 70.8 9.4 74.9 13.4 76.3L41.2 87.8 90.4 67.4 85.2 65.5 85.2 54.5 90.4 52.3 82.4 49.3 82.4 39.7 90.6 36.3ZM13.8 30.3 41.6 41.2 81.5 25.1 81.5 33.7 41.6 50.3 13.8 39.3 13.8 30.3ZM81.3 64.8 41.4 81.3 13.5 70.3 13.5 62.5 38.4 72.7 81.4 55.7 81.3 64.8ZM78.5 49.8 38.6 66.3 10.8 55.3 10.8 46.3 39.4 57.7 78.6 41.3 78.6 49.8Z"/></svg>